<svg xmlns="http://www.w3.org/2000/svg" viewBox="0 0 900 500" role="img" aria-label="A reel wheel above rippling water"><rect width="900" height="500" fill="#bdddcf"/><path d="M0 325Q150 250 300 325T600 325T900 325V500H0Z" fill="#204f43"/><path d="M0 385Q150 320 300 385T600 385T900 385" fill="none" stroke="#79b89e" stroke-width="3"/><circle cx="470" cy="205" r="144" fill="#fcf1cf" stroke="#204f43" stroke-width="12"/><path d="M470 205L470 66A139 139 0 0 1 590 275Z" fill="#d28757"/><path d="M470 205L350 275A139 139 0 0 1 350 135Z" fill="#6da38d"/><circle cx="470" cy="205" r="42" fill="#204f43"/><circle cx="470" cy="205" r="18" fill="#fcf1cf"/><path d="M470 43l-16-30h32Z" fill="#204f43"/><path d="M667 280q-65-65-85 0 20 65 85 0l45-35v70Z" fill="#fcf1cf"/><circle cx="617" cy="270" r="4" fill="#204f43"/></svg>